<svg id="SvgjsSvg1001" width="288" height="288" xmlns="http://www.w3.org/2000/svg" version="1.1" xmlns:xlink="http://www.w3.org/1999/xlink" xmlns:svgjs="http://svgjs.com/svgjs"><defs id="SvgjsDefs1002"></defs><g id="SvgjsG1008" transform="matrix(1,0,0,1,0,0)"><svg xmlns="http://www.w3.org/2000/svg" width="288" height="288" viewBox="0 0 8 8"><defs><filter id="a" width="1.288" height="1.288" x="-.144" y="-.144" color-interpolation-filters="sRGB"><feGaussianBlur stdDeviation=".36"></feGaussianBlur></filter></defs><g fill="#a7ff83" transform="translate(0 -1044.4)" class="colorfff svgShape"><circle cx="4" cy="1048.4" r="2.117" fill="#a7ff83" class="color000 svgShape"></circle><path style="text-decoration-color:#000;isolation:auto;mix-blend-mode:normal;solid-color:#000;block-progression:tb;text-decoration-line:none;text-decoration-style:solid;white-space:normal;text-indent:0;text-transform:none" d="m4 1045.4c-1.645 0-3 1.355-3 3s1.355 3 3 3 3-1.355 3-3-1.355-3-3-3zm0 2c0.56413 0 1 0.4359 1 1 0 0.5642-0.43587 1-1 1s-1-0.4358-1-1c0-0.5641 0.43587-1 1-1z" color="#000" filter="url(#a)" transform="translate(-.234 -61.224) scale(1.0584)" fill="#a7ff83" class="color000 svgShape"></path></g></svg></g></svg>