<svg version="1.1" viewBox="0.0 0.0 85.33333333333333 85.33333333333333" fill="none" stroke="none" stroke-linecap="square" stroke-miterlimit="10" xmlns:xlink="http://www.w3.org/1999/xlink" xmlns="http://www.w3.org/2000/svg"><clipPath id="p.0"><path d="m0 0l85.333336 0l0 85.333336l-85.333336 0l0 -85.333336z" clip-rule="nonzero"/></clipPath><g clip-path="url(#p.0)"><path fill="#000000" fill-opacity="0.0" d="m0 0l85.333336 0l0 85.333336l-85.333336 0z" fill-rule="evenodd"/><g filter="url(#shadowFilter-p.1)"><use xlink:href="#p.1" transform="matrix(1.0 0.0 0.0 1.0 0.0 2.0)"/></g><defs><filter id="shadowFilter-p.1" filterUnits="userSpaceOnUse"><feGaussianBlur in="SourceAlpha" stdDeviation="2.0" result="blur"/><feComponentTransfer in="blur" color-interpolation-filters="sRGB"><feFuncR type="linear" slope="0" intercept="0.0"/><feFuncG type="linear" slope="0" intercept="0.0"/><feFuncB type="linear" slope="0" intercept="0.0"/><feFuncA type="linear" slope="0.71" intercept="0"/></feComponentTransfer></filter></defs><g id="p.1"><path fill="#38761d" d="m10.816334 35.212902l31.850334 -24.120636l31.85033 24.120636l-12.165745 39.028004l-39.369175 0z" fill-rule="evenodd"/><path stroke="#000000" stroke-width="1.0" stroke-linejoin="round" stroke-linecap="butt" d="m10.816334 35.212902l31.850334 -24.120636l31.85033 24.120636l-12.165745 39.028004l-39.369175 0z" fill-rule="evenodd"/></g><g filter="url(#shadowFilter-p.2)"><use xlink:href="#p.2" transform="matrix(1.0 0.0 0.0 1.0 0.0 2.0)"/></g><defs><filter id="shadowFilter-p.2" filterUnits="userSpaceOnUse"><feGaussianBlur in="SourceAlpha" stdDeviation="2.0" result="blur"/><feComponentTransfer in="blur" color-interpolation-filters="sRGB"><feFuncR type="linear" slope="0" intercept="0.0"/><feFuncG type="linear" slope="0" intercept="0.0"/><feFuncB type="linear" slope="0" intercept="0.0"/><feFuncA type="linear" slope="0.71" intercept="0"/></feComponentTransfer></filter></defs><g id="p.2"><path fill="#45818e" d="m15.910532 40.392307l23.498037 -23.712128l29.320747 15.964111l-5.376816 33.578495l-32.643806 4.788536z" fill-rule="evenodd"/><path stroke="#000000" stroke-width="1.0" stroke-linejoin="round" stroke-linecap="butt" d="m15.910532 40.392307l23.498037 -23.712128l29.320747 15.964111l-5.376816 33.578495l-32.643806 4.788536z" fill-rule="evenodd"/></g><g filter="url(#shadowFilter-p.3)"><use xlink:href="#p.3" transform="matrix(1.0 0.0 0.0 1.0 0.0 2.0)"/></g><defs><filter id="shadowFilter-p.3" filterUnits="userSpaceOnUse"><feGaussianBlur in="SourceAlpha" stdDeviation="2.0" result="blur"/><feComponentTransfer in="blur" color-interpolation-filters="sRGB"><feFuncR type="linear" slope="0" intercept="0.0"/><feFuncG type="linear" slope="0" intercept="0.0"/><feFuncB type="linear" slope="0" intercept="0.0"/><feFuncA type="linear" slope="0.71" intercept="0"/></feComponentTransfer></filter></defs><g id="p.3"><path fill="#6aa84f" d="m25.45099 33.204273l20.72906 -11.805887l17.19212 16.561785l-10.103741 22.041634l-23.436579 -2.9393082z" fill-rule="evenodd"/><path stroke="#000000" stroke-width="1.0" stroke-linejoin="round" stroke-linecap="butt" d="m25.45099 33.204273l20.72906 -11.805887l17.19212 16.561785l-10.103741 22.041634l-23.436579 -2.9393082z" fill-rule="evenodd"/></g></g></svg>